# xmcd
#
# Track frame offsets:
#	150
#	10503
#	20473
#	32269
#	43339
#	56042
#	66481
#	79283
#	89236
#	100989
#	115829
#	130096
#	143513
#	156940
#	165833
#
# Disc length: 2555 seconds
#
# Revision: 0
# Processed by: cddbd v1.5.2PL0 Copyright (c) Steve Scherf et al.
# Submitted via: audiograbber 1.83.01
#
DISCID=c009f90f
DTITLE=John Bisignano - Self Titled
DYEAR=1900
DGENRE=Blues
TTITLE0=Happy Rooster
TTITLE1=The Golden Mile
TTITLE2=Come With Me
TTITLE3=Fools Rush In
TTITLE4=Autumn Leaves
TTITLE5=Kiss Of Fire
TTITLE6=Marina
TTITLE7=Multiplication
TTITLE8=Quando
TTITLE9=Take 5
TTITLE10=Volare
TTITLE11=Wangajazz
TTITLE12=All Of Me
TTITLE13=Just A Little Boogie
TTITLE14=Summer Time
EXTD=
EXTT0=
EXTT1=
EXTT2=
EXTT3=
EXTT4=
EXTT5=
EXTT6=
EXTT7=
EXTT8=
EXTT9=
EXTT10=
EXTT11=
EXTT12=
EXTT13=
EXTT14=
PLAYORDER=
